<svg width="519" height="196" viewBox="0 0 519 196" fill="none" xmlns="http://www.w3.org/2000/svg">
<rect x="100" width="269" height="154" fill="#00AEFF"/>
<path d="M206.013 98V72.3008H211.462V98H206.013ZM242.53 98H235.604L224.425 78.5586H224.266C224.489 81.9922 224.6 84.4414 224.6 85.9062V98H219.731V72.3008H226.604L237.766 91.5488H237.889C237.714 88.209 237.626 85.8477 237.626 84.4648V72.3008H242.53V98ZM250.816 98V72.3008H256.266V93.5H266.689V98H250.816ZM288.704 98L286.841 91.8828H277.472L275.609 98H269.737L278.808 72.1953H285.47L294.575 98H288.704ZM285.54 87.3125C283.818 81.7695 282.845 78.6348 282.622 77.9082C282.411 77.1816 282.259 76.6074 282.165 76.1855C281.779 77.6855 280.671 81.3945 278.843 87.3125H285.54ZM314.797 90.8633C314.797 93.1836 313.959 95.0117 312.284 96.3477C310.62 97.6836 308.299 98.3516 305.323 98.3516C302.58 98.3516 300.155 97.8359 298.045 96.8047V91.7422C299.78 92.5156 301.245 93.0605 302.44 93.377C303.647 93.6934 304.748 93.8516 305.745 93.8516C306.94 93.8516 307.854 93.623 308.487 93.166C309.131 92.709 309.453 92.0293 309.453 91.127C309.453 90.623 309.313 90.1777 309.032 89.791C308.75 89.3926 308.334 89.0117 307.784 88.6484C307.245 88.2852 306.137 87.7051 304.461 86.9082C302.891 86.1699 301.713 85.4609 300.928 84.7812C300.143 84.1016 299.516 83.3105 299.047 82.4082C298.578 81.5059 298.344 80.4512 298.344 79.2441C298.344 76.9707 299.112 75.1836 300.647 73.8828C302.194 72.582 304.327 71.9316 307.045 71.9316C308.381 71.9316 309.653 72.0898 310.86 72.4062C312.078 72.7227 313.35 73.168 314.674 73.7422L312.916 77.9785C311.545 77.416 310.409 77.0234 309.506 76.8008C308.616 76.5781 307.737 76.4668 306.87 76.4668C305.838 76.4668 305.047 76.707 304.496 77.1875C303.946 77.668 303.67 78.2949 303.67 79.0684C303.67 79.5488 303.782 79.9707 304.004 80.334C304.227 80.6855 304.578 81.0312 305.059 81.3711C305.551 81.6992 306.705 82.2969 308.522 83.1641C310.924 84.3125 312.571 85.4668 313.461 86.627C314.352 87.7754 314.797 89.1875 314.797 90.8633Z" fill="white"/>
<path d="M197.923 68.0781C197.923 79.3594 194.704 88 188.267 94C181.86 100 172.595 103 160.47 103H141.063V34.4687H162.579C173.767 34.4687 182.454 37.4219 188.642 43.3281C194.829 49.2344 197.923 57.4844 197.923 68.0781ZM182.829 68.4531C182.829 53.7344 176.329 46.375 163.329 46.375H155.595V91H161.829C175.829 91 182.829 83.4844 182.829 68.4531Z" fill="white"/>
</svg>
